<?xml version="1.0" encoding="iso-8859-1"?>
<!-- Generator: Adobe Illustrator 21.0.0, SVG Export Plug-In . SVG Version: 6.00 Build 0)  -->
<svg xmlns="http://www.w3.org/2000/svg" xmlns:xlink="http://www.w3.org/1999/xlink" version="1.1" id="Capa_1" x="0px" y="0px" viewBox="0 0 511 511" style="enable-background:new 0 0 511 511;" xml:space="preserve" width="512" height="512">
<g>
	<path fill="white" d="M480.5,180h-60c-8.401,0-15-6.601-15-15v-30c0-74.399-60.601-135-135-135h-120c-74.399,0-135,60.601-135,135v241   c0,74.399,60.601,135,135,135h210c74.399,0,135-60.601,135-135V195C495.5,186.599,488.901,180,480.5,180z M285.5,165   c0,8.399-6.599,15-15,15h-120c-8.401,0-15-6.601-15-15v-30c0-8.401,6.599-15,15-15h120c8.401,0,15,6.599,15,15V165z M135.5,346   c0-8.401,6.599-15,15-15h210c8.401,0,15,6.599,15,15v30c0,8.399-6.599,15-15,15h-210c-8.401,0-15-6.601-15-15V346z"/>
</g>















</svg>
