<svg id="Capa_1" enable-background="new 0 0 512.428 512.428" height="512" viewBox="0 0 512.428 512.428" width="512" xmlns="http://www.w3.org/2000/svg"><path fill="white" d="m508.434 420.271-43.22-58.057h-418l-43.22 58.057c-9.822 13.194-.406 31.943 16.043 31.943h472.355c16.448 0 25.864-18.75 16.042-31.943z"/><path fill="white" d="m465.214 100.214c0-22.091-17.909-40-40-40h-338c-22.091 0-40 17.909-40 40v232h418zm-168 30h-82c-8.284 0-15-6.716-15-15s6.716-15 15-15h82c8.284 0 15 6.716 15 15s-6.716 15-15 15z"/></svg>