<svg id="Capa_1" enable-background="new 0 0 512 512" height="512" viewBox="0 0 512 512" width="512" xmlns="http://www.w3.org/2000/svg"><path fill="white" d="m346 120h96.211l-111.211-111.211v96.211c0 8.276 6.724 15 15 15z"/><path fill="white" d="m271 241h60v30h-60z"/><path fill="white" d="m271 301h60v30h-60z"/><path fill="white" d="m181 301h60v30h-60z"/><path fill="white" d="m271 361h60v30h-60z"/><path fill="white" d="m106 512h300c24.814 0 45-20.186 45-45v-317h-105c-24.814 0-45-20.186-45-45v-105h-195c-24.814 0-45 20.186-45 45v422c0 24.814 20.186 45 45 45zm45-286c0-8.291 6.709-15 15-15h180c8.291 0 15 6.709 15 15v180c0 8.291-6.709 15-15 15h-180c-8.291 0-15-6.709-15-15z"/><path fill="white" d="m181 361h60v30h-60z"/><path fill="white" d="m181 241h60v30h-60z"/></svg>