<svg id="Capa_1" enable-background="new 0 0 512 512" height="512" viewBox="0 0 512 512" width="512" xmlns="http://www.w3.org/2000/svg"><g><path fill="white" d="m271 376v-15h-30v15c0 8.276 6.724 15 15 15s15-6.724 15-15z"/><path fill="white" d="m497 150h-482c-8.291 0-15 6.709-15 15v68.258l229.067 97.742h53.866l229.067-97.744v-68.256c0-8.291-6.709-15-15-15z"/><path fill="white" d="m301 376c0 24.814-20.186 45-45 45s-45-20.186-45-45v-20.114l-211-89.998v201.112c0 8.291 6.709 15 15 15h482c8.291 0 15-6.709 15-15v-201.114l-211 90zm75 15h60c8.291 0 15 6.709 15 15s-6.709 15-15 15h-60c-8.291 0-15-6.709-15-15s6.709-15 15-15z"/><path fill="white" d="m391 120v-15c0-41.353-33.647-75-75-75h-120c-41.353 0-75 33.647-75 75v15h60v-30h150v30z"/></g></svg>